HIERARCHY
ROOT hip
{
  OFFSET 0 0 0
  CHANNELS 6 Xposition Yposition Zposition Zrotation Yrotation Xrotation
  JOINT abdomen
  {
    OFFSET 0 20.6881 -0.73152
    CHANNELS 3 Zrotation Xrotation Yrotation
    JOINT chest
    {
      OFFSET 0 11.7043 -0.48768
      CHANNELS 3 Zrotation Xrotation Yrotation
      JOINT neck
      {
        OFFSET 0 22.1894 -2.19456
        CHANNELS 3 Zrotation Xrotation Yrotation
        JOINT head
        {
          OFFSET -0.24384 7.07133 1.2192
          CHANNELS 3 Zrotation Xrotation Yrotation
          JOINT leftEye
          {
            OFFSET 4.14528 8.04674 8.04672
            CHANNELS 3 Zrotation Xrotation Yrotation
            End Site
            {
              OFFSET 1 0 0
            }
          }
          JOINT rightEye
          {
            OFFSET -3.6576 8.04674 8.04672
            CHANNELS 3 Zrotation Xrotation Yrotation
            End Site
            {
              OFFSET 1 0 0
            }
          }
        }
      }
      JOINT rCollar
      {
        OFFSET -2.68224 19.2634 -4.8768
        CHANNELS 3 Zrotation Xrotation Yrotation
        JOINT rShldr
        {
          OFFSET -8.77824 -1.95073 1.46304
          CHANNELS 3 Zrotation Xrotation Yrotation
          JOINT rForeArm
          {
            OFFSET -28.1742 -1.7115 0.48768
            CHANNELS 3 Zrotation Xrotation Yrotation
            JOINT rHand
            {
              OFFSET -22.5879 0.773209 7.07136
              CHANNELS 3 Zrotation Xrotation Yrotation
              JOINT rThumb1
              {
                OFFSET -1.2192 -0.487915 3.41376
                CHANNELS 3 Zrotation Xrotation Yrotation
                JOINT rThumb2
                {
                  OFFSET -3.37035 -0.52449 3.41376
                  CHANNELS 3 Zrotation Xrotation Yrotation
                  End Site
                  {
                    OFFSET -1.78271 -1.18214 1.43049
                  }
                }
              }
              JOINT rIndex1
              {
                OFFSET -7.75947 0.938293 5.60832
                CHANNELS 3 Zrotation Xrotation Yrotation
                JOINT rIndex2
                {
                  OFFSET -2.54057 -0.884171 1.56538
                  CHANNELS 3 Zrotation Xrotation Yrotation
                  End Site
                  {
                    OFFSET -1.62519 -0.234802 1.16502
                  }
                }
              }
              JOINT rMid1
              {
                OFFSET -8.24714 1.18213 3.41376
                CHANNELS 3 Zrotation Xrotation Yrotation
                JOINT rMid2
                {
                  OFFSET -3.10165 -0.590103 1.0647
                  CHANNELS 3 Zrotation Xrotation Yrotation
                  End Site
                  {
                    OFFSET -2.48547 -0.328903 0.83742
                  }
                }
              }
              JOINT rRing1
              {
                OFFSET -8.82822 0.546677 1.51678
                CHANNELS 3 Zrotation Xrotation Yrotation
                JOINT rRing2
                {
                  OFFSET -2.60934 -0.819778 -0.0198488
                  CHANNELS 3 Zrotation Xrotation Yrotation
                  End Site
                  {
                    OFFSET -2.33842 -0.294052 0.168128
                  }
                }
              }
              JOINT rPinky1
              {
                OFFSET -8.27202 -0.0477905 -0.4584
                CHANNELS 3 Zrotation Xrotation Yrotation
                JOINT rPinky2
                {
                  OFFSET -1.82734 -0.647385 -0.700984
                  CHANNELS 3 Zrotation Xrotation Yrotation
                  End Site
                  {
                    OFFSET -1.69225 -0.51767 -0.607171
                  }
                }
              }
            }
          }
        }
      }
      JOINT lCollar
      {
        OFFSET 2.68224 19.2634 -4.8768
        CHANNELS 3 Zrotation Xrotation Yrotation
        JOINT lShldr
        {
          OFFSET 8.77824 -1.95073 1.46304
          CHANNELS 3 Zrotation Xrotation Yrotation
          JOINT lForeArm
          {
            OFFSET 28.1742 -1.7115 0.48768
            CHANNELS 3 Zrotation Xrotation Yrotation
            JOINT lHand
            {
              OFFSET 22.5879 0.773209 7.07136
              CHANNELS 3 Zrotation Xrotation Yrotation
              JOINT lThumb1
              {
                OFFSET 1.2192 -0.487915 3.41376
                CHANNELS 3 Zrotation Xrotation Yrotation
                JOINT lThumb2
                {
                  OFFSET 3.37035 -0.52449 3.41376
                  CHANNELS 3 Zrotation Xrotation Yrotation
                  End Site
                  {
                    OFFSET 1.78271 -1.18214 1.43049
                  }
                }
              }
              JOINT lIndex1
              {
                OFFSET 7.75947 0.938293 5.60832
                CHANNELS 3 Zrotation Xrotation Yrotation
                JOINT lIndex2
                {
                  OFFSET 2.54057 -0.884171 1.56538
                  CHANNELS 3 Zrotation Xrotation Yrotation
                  End Site
                  {
                    OFFSET 1.62519 -0.234802 1.16502
                  }
                }
              }
              JOINT lMid1
              {
                OFFSET 8.24714 1.18213 3.41376
                CHANNELS 3 Zrotation Xrotation Yrotation
                JOINT lMid2
                {
                  OFFSET 3.10165 -0.590103 1.0647
                  CHANNELS 3 Zrotation Xrotation Yrotation
                  End Site
                  {
                    OFFSET 2.48547 -0.328903 0.83742
                  }
                }
              }
              JOINT lRing1
              {
                OFFSET 8.82822 0.546677 1.51678
                CHANNELS 3 Zrotation Xrotation Yrotation
                JOINT lRing2
                {
                  OFFSET 2.60934 -0.819778 -0.0198488
                  CHANNELS 3 Zrotation Xrotation Yrotation
                  End Site
                  {
                    OFFSET 2.33842 -0.294052 0.168128
                  }
                }
              }
              JOINT lPinky1
              {
                OFFSET 8.27202 -0.0477905 -0.4584
                CHANNELS 3 Zrotation Xrotation Yrotation
                JOINT lPinky2
                {
                  OFFSET 1.82734 -0.647385 -0.700984
                  CHANNELS 3 Zrotation Xrotation Yrotation
                  End Site
                  {
                    OFFSET 1.69225 -0.51767 -0.607171
                  }
                }
              }
            }
          }
        }
      }
    }
  }
  JOINT rButtock
  {
    OFFSET -8.77824 4.35084 1.2192
    CHANNELS 3 Zrotation Xrotation Yrotation
    JOINT rThigh
    {
      OFFSET 0 -1.70687 -2.19456
      CHANNELS 3 Zrotation Xrotation Yrotation
      JOINT rShin
      {
        OFFSET 0 -36.8199 0.73152
        CHANNELS 3 Zrotation Xrotation Yrotation
        JOINT rFoot
        {
          OFFSET 0.73152 -45.1104 -5.12064
          CHANNELS 3 Zrotation Xrotation Yrotation
          End Site
          {
            OFFSET -1.1221 -3.69964 12.103
          }
        }
      }
    }
  }
  JOINT lButtock
  {
    OFFSET 8.77824 4.35084 1.2192
    CHANNELS 3 Zrotation Xrotation Yrotation
    JOINT lThigh
    {
      OFFSET 0 -1.70687 -2.19456
      CHANNELS 3 Zrotation Xrotation Yrotation
      JOINT lShin
      {
        OFFSET 0 -36.8199 0.73152
        CHANNELS 3 Zrotation Xrotation Yrotation
        JOINT lFoot
        {
          OFFSET -0.73152 -45.1104 -5.12064
          CHANNELS 3 Zrotation Xrotation Yrotation
          End Site
          {
            OFFSET 1.1221 -3.69964 12.103
          }
        }
      }
    }
  }
}
MOTION
Frames:	4
Frame Time:	0.00833333
2.25227 99.3019 -48.3662 0.1496 4.3946 9.3189 -0.569405 4.38598 -3.19977 3.44663 3.24575 -1.05475 -3.11548 5.61419 -0.106511 1.08538 4.07569 0.311496 -0.0 0.0 0.0 -0.0 0.0 0.0 8.05232e-15 -1.20862e-13 1.10773e-13 72.667 16.5376 11.0728 -13.1036 -6.25343 23.7675 -1.2437 29.9572 4.64613 -1.18302e-09 2.39906e-10 8.03554e-10 -2.02186e-09 3.80684e-10 1.41668e-09 -1.18302e-09 2.39916e-10 8.03545e-10 7.73091 5.47488 0.417314 -1.18302e-09 2.39915e-10 8.03548e-10 2.90554 0.965183 0.102902 -1.18301e-09 2.39916e-10 8.03554e-10 10.2786 0.731801 0.0259123 -1.18302e-09 2.39915e-10 8.03564e-10 2.22167 -0.733487 -0.20892 7.90067e-15 -1.20861e-13 1.10475e-13 -63.8378 32.9785 -23.9774 12.1815 -5.57664 -21.9616 0.548537 -20.5666 3.02274 -1.6843e-09 -2.48765e-09 -1.1652e-09 -2.89869e-09 -4.2903e-09 -2.03753e-09 -1.68431e-09 -2.48765e-09 -1.16519e-09 -7.73091 5.47488 -0.417314 -1.68431e-09 -2.48765e-09 -1.1652e-09 -2.90554 0.965183 -0.102902 -1.68431e-09 -2.48765e-09 -1.1652e-09 -10.2786 0.731801 -0.0259123 -1.68431e-09 -2.48765e-09 -1.16521e-09 -2.22167 -0.733487 0.20892 -2.03217e-16 0.0 -3.88251e-19 -5.28062 -21.2095 -5.43144 -0.345756 37.2106 0.26684 4.46173 32.8645 -10.0556 2.03217e-16 0.0 3.88251e-19 5.73436 -28.3567 5.52867 0.438139 44.316 -0.700588 1.10788 35.1101 -1.68758
2.24354 99.9745 -47.7853 0.1615 4.4011 8.9131 -0.670925 5.15549 -3.14825 3.48995 3.13294 -1.03975 -3.12013 5.56151 -0.145447 1.20344 4.18544 0.235187 -0.0 0.0 0.0 -0.0 0.0 0.0 1.02069e-14 -9.57905e-14 7.98699e-14 72.8668 16.3231 10.9992 -13.0689 -6.2272 23.6989 -1.2575 30.1051 4.67389 -9.19889e-10 1.65629e-10 6.7239e-10 -1.57082e-09 2.59009e-10 1.18354e-09 -9.19889e-10 1.65639e-10 6.72377e-10 7.73091 5.47488 0.417314 -9.19894e-10 1.65638e-10 6.72384e-10 2.90554 0.965183 0.102902 -9.19885e-10 1.65637e-10 6.72389e-10 10.2786 0.731801 0.0259123 -9.1989e-10 1.65637e-10 6.72398e-10 2.22167 -0.733487 -0.20892 1.00593e-14 -9.5789e-14 7.95888e-14 -63.6736 33.23 -24.1006 12.2057 -5.5934 -22.0097 0.568751 -20.9075 3.07787 -1.48855e-09 -2.18282e-09 -9.12148e-10 -2.56398e-09 -3.76685e-09 -1.59697e-09 -1.48855e-09 -2.18282e-09 -9.12145e-10 -7.73091 5.47488 -0.417314 -1.48855e-09 -2.18282e-09 -9.12152e-10 -2.90554 0.965183 -0.102902 -1.48856e-09 -2.18282e-09 -9.12153e-10 -10.2786 0.731801 -0.0259123 -1.48855e-09 -2.18282e-09 -9.1216e-10 -2.22167 -0.733487 0.20892 -2.03217e-16 0.0 -3.88251e-19 -5.33742 -21.8054 -5.37086 -0.363892 38.2644 0.30131 4.21289 32.6232 -9.63162 2.03217e-16 0.0 3.88251e-19 5.71147 -28.7839 5.54114 0.454362 44.9557 -0.725017 1.14518 34.8357 -1.77323
2.23846 100.594 -47.1997 0.18 4.3851 8.4823 -0.787653 6.07099 -3.06492 3.52855 2.97072 -1.0146 -3.11856 5.48738 -0.179698 1.29775 4.28645 0.168659 -0.0 0.0 0.0 -0.0 0.0 0.0 1.21526e-14 -3.79691e-14 2.4348e-14 73.1036 15.9981 10.9442 -13.0102 -6.18273 23.5831 -1.28166 30.3596 4.72194 -3.67768e-10 -1.20448e-11 4.17233e-10 -6.23974e-10 -3.42438e-11 7.29179e-10 -3.67766e-10 -1.2037e-11 4.17216e-10 7.73091 5.47488 0.417314 -3.67773e-10 -1.20386e-11 4.1723e-10 2.90554 0.965183 0.102902 -3.67763e-10 -1.20405e-11 4.17231e-10 10.2786 0.731801 0.0259123 -3.67772e-10 -1.20404e-11 4.17239e-10 2.22167 -0.733487 -0.20892 1.20223e-14 -3.79672e-14 2.40809e-14 -63.5638 33.3604 -24.2322 12.1833 -5.57736 -21.9661 0.580504 -21.1093 3.11049 -9.8129e-10 -1.40869e-09 -4.17419e-10 -1.69372e-09 -2.43456e-09 -7.34272e-10 -9.81295e-10 -1.40869e-09 -4.17415e-10 -7.73091 5.47488 -0.417314 -9.8129e-10 -1.40869e-09 -4.17428e-10 -2.90554 0.965183 -0.102902 -9.81296e-10 -1.40869e-09 -4.17426e-10 -10.2786 0.731801 -0.0259123 -9.81286e-10 -1.40869e-09 -4.17434e-10 -2.22167 -0.733487 0.20892 -2.03217e-16 0.0 -3.88251e-19 -5.40529 -22.3407 -5.32384 -0.381706 39.256 0.335435 3.96947 32.0923 -9.30526 2.03217e-16 0.0 3.88251e-19 5.65829 -29.0997 5.55041 0.465978 45.416 -0.742188 1.13472 34.4315 -1.76849
2.23425 101.16 -46.6136 0.1943 4.3533 8.0654 -0.900689 7.00039 -2.97436 3.55673 2.78882 -0.986295 -3.11151 5.40734 -0.208327 1.3691 4.38385 0.113 -0.0 0.0 0.0 -0.0 0.0 0.0 1.2542e-14 2.77044e-14 -3.09114e-14 73.3572 15.6312 10.9033 -12.9347 -6.12591 23.4344 -1.31055 30.6582 4.77873 2.52951e-10 -1.98093e-10 1.03436e-10 4.39825e-10 -3.40029e-10 1.71876e-10 2.52955e-10 -1.98088e-10 1.03415e-10 7.73091 5.47488 0.417314 2.52946e-10 -1.9809e-10 1.03434e-10 2.90554 0.965183 0.102902 2.52957e-10 -1.98093e-10 1.03433e-10 10.2786 0.731801 0.0259123 2.52944e-10 -1.98093e-10 1.0344e-10 2.22167 -0.733487 -0.20892 1.24369e-14 2.77064e-14 -3.11676e-14 -63.5313 33.3886 -24.3238 12.1314 -5.54082 -21.8651 0.58415 -21.1786 3.12157 -3.87527e-10 -4.72256e-10 1.41103e-10 -6.74373e-10 -8.21763e-10 2.39677e-10 -3.87531e-10 -4.72257e-10 1.41109e-10 -7.73091 5.47488 -0.417314 -3.87526e-10 -4.72256e-10 1.4109e-10 -2.90554 0.965183 -0.102902 -3.87531e-10 -4.72256e-10 1.41096e-10 -10.2786 0.731801 -0.0259123 -3.87519e-10 -4.72253e-10 1.41085e-10 -2.22167 -0.733487 0.20892 -2.03217e-16 0.0 -3.88251e-19 -5.47917 -22.8844 -5.30641 -0.398548 40.1469 0.367695 3.73472 31.4011 -9.03742 2.03217e-16 0.0 3.88251e-19 5.60011 -29.3911 5.57148 0.472811 45.6986 -0.752757 1.099 33.9321 -1.71503
